<svg version="1.1" viewBox="0.0 0.0 282.6666666666667 290.0" fill="none" stroke="none" stroke-linecap="square" stroke-miterlimit="10" xmlns:xlink="http://www.w3.org/1999/xlink" xmlns="http://www.w3.org/2000/svg"><clipPath id="p.0"><path d="m0 0l282.66666 0l0 290.0l-282.66666 0l0 -290.0z" clip-rule="nonzero"/></clipPath><g clip-path="url(#p.0)"><path fill="#000000" fill-opacity="0.0" d="m0 0l282.66666 0l0 290.0l-282.66666 0z" fill-rule="evenodd"/><g filter="url(#shadowFilter-p.1)"><use xlink:href="#p.1" transform="matrix(1.0 0.0 0.0 1.0 0.0 2.0)"/></g><defs><filter id="shadowFilter-p.1" filterUnits="userSpaceOnUse"><feGaussianBlur in="SourceAlpha" stdDeviation="2.0" result="blur"/><feComponentTransfer in="blur" color-interpolation-filters="sRGB"><feFuncR type="linear" slope="0" intercept="0.0"/><feFuncG type="linear" slope="0" intercept="0.0"/><feFuncB type="linear" slope="0" intercept="0.0"/><feFuncA type="linear" slope="0.5" intercept="0"/></feComponentTransfer></filter></defs><g id="p.1"><path fill="#000000" fill-opacity="0.0" d="m0 144.98688l0 0c0 -80.07694 63.279438 -144.99213 141.33858 -144.99213l0 0c37.48532 0 73.43535 15.275912 99.94148 42.46721c26.506134 27.1913 41.397095 64.07062 41.397095 102.52492l0 0c0 80.076935 -63.279434 144.99213 -141.33858 144.99213l0 0c-78.05914 0 -141.33858 -64.91519 -141.33858 -144.99213z" fill-rule="evenodd"/><path stroke="#0b6ffd" stroke-width="4.0" stroke-linejoin="round" stroke-linecap="butt" stroke-dasharray="4.0,12.0" d="m0 144.98688l0 0c0 -80.07694 63.279438 -144.99213 141.33858 -144.99213l0 0c37.48532 0 73.43535 15.275912 99.94148 42.46721c26.506134 27.1913 41.397095 64.07062 41.397095 102.52492l0 0c0 80.076935 -63.279434 144.99213 -141.33858 144.99213l0 0c-78.05914 0 -141.33858 -64.91519 -141.33858 -144.99213z" fill-rule="evenodd"/><path fill="#0b6ffd" d="m182.47078 165.38063q1.90625 0 3.0 1.828125q1.109375 1.828125 1.109375 4.625q0 3.375 -1.03125 5.28125q-1.015625 1.90625 -3.21875 3.359375q-8.65625 5.734375 -27.578125 18.78125q-5.71875 30.359375 -14.8125 47.8125q-9.09375 17.45314 -23.015633 17.45314q-7.484375 0 -12.1875 -4.625q-4.6875 -4.6250153 -4.6875 -12.093765q0 -6.90625 3.078125 -13.953125q3.09375 -7.03125 11.515625 -16.265625q8.4375 -9.234375 23.843758 -21.109375l0.4375 -2.796875q-11.593758 4.84375 -22.734383 4.84375q-16.421875 0 -28.890625 -6.375q-12.46875 -6.390625 -19.359375 -18.109375q-6.890621 -11.734375 -6.890621 -27.28125q0 -21.703125 8.203121 -38.34375q8.21875 -16.65625 22.65625 -25.8125q14.453125 -9.171875 32.34375 -9.171875q17.156258 0 25.734383 8.0q8.578125 7.984375 8.578125 21.171875q0 8.65625 -3.15625 13.875q-3.140625 5.203125 -9.015625 5.203125q-3.953125 0 -6.375 -1.90625q-2.421875 -1.90625 -2.421875 -5.28125q0 -1.46875 0.59375 -4.984375q0.875 -4.109375 0.875 -6.453125q0 -6.171875 -3.75 -9.53125q-3.734375 -3.375 -12.531258 -3.375q-10.703125 0 -19.875 6.15625q-9.15625 6.15625 -14.734375 18.40625q-5.578125 12.25 -5.578125 29.40625q0 17.59375 9.609375 27.203125q9.609375 9.609375 27.796875 9.609375q10.125008 0 21.109383 -4.546875l2.0625 -17.890625l-14.96875 0q-4.0937576 0 -6.2968826 -1.984375q-2.203125 -1.984375 -2.203125 -6.53125q0 -4.109375 2.203125 -6.453125q2.203125 -2.34375 5.859375 -2.34375l27.437508 0q3.21875 0 5.34375 2.125q2.125 2.125 1.6875 6.09375q-0.4375 4.6875 -2.9375 21.265625l-1.609375 11.140625q11.734375 -8.796875 21.40625 -15.25q1.90625 -1.171875 3.375 -1.171875zm-63.937508 84.90625q3.8125 0 8.359375 -8.65625q4.5468826 -8.640625 8.500008 -27.859375q-11.140633 9.53125 -16.062508 17.234375q-4.90625 7.703125 -4.90625 13.5625q0 5.71875 4.109375 5.71875zm109.266365 -68.484375q3.21875 -0.140625 4.90625 2.28125q1.6875 2.40625 1.6875 5.9375q0 3.65625 -1.6875 6.453125q-1.6875 2.78125 -4.625 2.78125q-5.28125 0 -9.90625 -0.15625q-4.609375 -0.140625 -8.125 -0.28125q-13.5 -0.59375 -19.0625 -0.59375q-1.90625 0 -5.578125 1.328125q-4.6875 1.453125 -6.453125 1.453125q-7.765625 0 -7.765625 -9.96875q0 -6.75 4.828125 -15.328125q4.84375 -8.578125 12.609375 -16.640625q7.78125 -8.0625 16.140625 -13.484375l-20.671875 0.578125q-3.234375 0.15625 -4.921875 -2.265625q-1.6875 -2.421875 -1.6875 -5.796875q0 -3.515625 1.6875 -6.234375q1.6875 -2.71875 4.625 -2.71875q6.453125 0 15.984375 1.03125q1.609375 0.140625 6.953125 0.59375q5.359375 0.4375 9.90625 0.4375q1.46875 0 5.578125 -1.171875q0.734375 -0.15625 2.859375 -0.734375q2.125 -0.59375 3.59375 -0.59375q2.34375 0 3.875 2.0625q1.546875 2.046875 1.546875 6.296875q0 4.703125 -2.28125 7.484375q-2.265625 2.78125 -6.8125 4.984375q-5.125 2.34375 -12.03125 8.0625q-6.890625 5.71875 -13.046875 12.6875q-6.15625 6.96875 -9.09375 13.125l36.96875 -1.609375z" fill-rule="nonzero"/></g></g></svg>